<?xml version="1.0" standalone="no"?>
<!DOCTYPE svg PUBLIC "-//W3C//DTD SVG 20010904//EN"
 "http://www.w3.org/TR/2001/REC-SVG-20010904/DTD/svg10.dtd">
<svg version="1.0" xmlns="http://www.w3.org/2000/svg"
 width="200.000000pt" height="155.000000pt" viewBox="0 0 200.000000 155.000000"
 preserveAspectRatio="xMidYMid meet">

<g transform="translate(0.000000,155.000000) scale(0.100000,-0.100000)"
fill="#000000" stroke="none">
<path d="M762 1530 c-18 -11 -41 -34 -52 -52 -19 -31 -20 -51 -20 -297 0 -246
-1 -263 -17 -256 -89 34 -216 44 -302 24 -75 -17 -150 -59 -215 -120 -200
-187 -208 -482 -18 -681 132 -139 339 -184 516 -113 37 15 72 24 79 20 7 -3
23 -12 37 -20 57 -33 138 -3 172 65 17 32 18 86 18 685 0 725 3 694 -69 742
-42 28 -86 29 -129 3z m-204 -856 c152 -63 177 -261 45 -361 -133 -100 -333 1
-333 168 0 144 156 249 288 193z"/>
<path d="M1162 1530 c-18 -11 -41 -34 -52 -52 -19 -32 -20 -52 -20 -691 0
-546 2 -663 14 -685 40 -76 122 -103 186 -60 67 45 70 60 70 371 l0 277 63 0
c112 1 187 56 187 140 0 45 -30 95 -71 115 -17 9 -65 19 -105 22 l-74 6 0 231
c0 259 -5 280 -69 323 -42 28 -86 29 -129 3z"/>
<path d="M1768 1530 c-95 -51 -112 -169 -36 -247 77 -79 199 -60 249 39 51
100 -15 216 -128 225 -35 2 -58 -2 -85 -17z"/>
<path d="M1806 959 c-15 -4 -37 -16 -48 -26 -47 -43 -48 -50 -48 -444 0 -355
1 -373 20 -404 57 -93 186 -82 231 20 19 42 20 65 17 404 -3 345 -4 361 -24
387 -41 56 -95 79 -148 63z"/>
</g>
</svg>
